<?xml version="1.0" encoding="UTF-8" standalone="no"?>
<svg
   xmlns:dc="http://purl.org/dc/elements/1.1/"
   xmlns:cc="http://creativecommons.org/ns#"
   xmlns:rdf="http://www.w3.org/1999/02/22-rdf-syntax-ns#"
   xmlns:svg="http://www.w3.org/2000/svg"
   xmlns="http://www.w3.org/2000/svg"
   xmlns:sodipodi="http://sodipodi.sourceforge.net/DTD/sodipodi-0.dtd"
   xmlns:inkscape="http://www.inkscape.org/namespaces/inkscape"
   id="svg3336"
   version="1.1"
   inkscape:version="1.0.2 (e86c870879, 2021-01-15, custom)"
   width="1374.8795"
   height="1070.2346"
   viewBox="0 0 1374.8795 1070.2346"
   sodipodi:docname="svg.svg">
  <path
     id="path3400"
     style="fill:#000000;fill-opacity:0.980099"
     d="m 929.06986,0 0.88672,10.025391 0.88867,10.02539 -14.1836,-3.615234 c -7.80082,-1.988383 -22.90234,-5.147655 -33.55859,-7.0214843 -17.20381,-3.0251733 -22.52673,-3.409609 -47.5,-3.433594 -30.66679,-0.029453 -40.32565,1.1257281 -68.09375,8.1445313 -8.23315,2.081053 -15.08902,3.903482 -15.23437,4.048828 -0.66232,0.662314 14.56675,19.633169 22.26953,27.742188 4.70765,4.955934 8.55859,9.366973 8.55859,9.802734 0,0.435761 -1.27963,0.792969 -2.84375,0.792969 -5.15748,0 -33.21423,7.388043 -45.60937,12.009766 -11.04011,4.116473 -43.29374,19.401343 -45.63282,21.625 -1.17282,1.114933 17.6898,16.469965 29.71094,24.185545 18.38381,11.79935 40.80251,21.55869 66.47266,28.9375 l 14.34765,4.12305 -5.14258,3.03711 -5.14257,3.03711 8.24609,6.83398 c 29.90815,24.79084 62.89706,40.14182 108.71875,50.58789 l 3.75,0.85352 -6.23828,3.1875 -6.23828,3.18555 10.41406,9.76367 c 12.95905,12.15044 28.81384,23.0842 47.23242,32.57422 l 14.18164,7.30859 h -24.98828 -24.98828 v 23.125 23.125 h -19.375 -19.375 v -23.125 -23.125 h -34.375 -34.375 v 60 60 h 17.5 17.5 v 41.25 41.25 h -25.625 -25.625 v 21.25 21.25 h -32.5 -32.5 v -21.25 -21.25 h -43.75 -43.75 v 21.25 21.25 h -31.875 -31.875 v -21.25 -21.25 h -25.625 -25.625 v -41.25 -41.25 h 16.875 16.875 v -60 -60 h -34.375 -34.375 v 23.125 23.125 h -19.375 -19.375 v -23.125 -23.125 l -24.0625,-0.0312 -24.0625,-0.0312 15,-7.81641 c 8.25,-4.29823 18.54637,-10.23129 22.88086,-13.18554 8.3207,-5.67114 27.98976,-21.82398 31.98047,-26.26367 2.35254,-2.61723 2.33802,-2.63789 -4.26953,-5.69922 -6.56538,-3.04179 -6.59532,-3.07986 -2.98633,-3.90821 45.91612,-10.53888 74.11263,-23.09349 103.63281,-46.14453 14.43394,-11.27084 14.40762,-11.22087 7.95703,-14.51172 l -5.36719,-2.73828 14.33594,-3.93359 c 34.558,-9.4858 64.68144,-24.77066 89.17383,-45.246097 10.24913,-8.568284 11.19437,-7.169666 -12.73047,-18.824318 -18.27043,-8.900173 -43.71138,-17.763807 -60.23242,-20.984375 -5.84375,-1.139165 -11.43304,-2.343167 -12.41992,-2.675782 -1.23438,-0.416038 0.9653,-3.41689 7.04883,-9.617187 4.86367,-4.957025 12.06437,-13.232422 16,-18.388672 l 7.15429,-9.375 -7.0625,-2.150391 C 605.19771,12.848072 581.12008,8.0625549 567.83939,6.5996093 535.30045,3.0152538 491.13996,7.2982933 453.74368,17.667969 c -4.80108,1.331301 -8.84537,2.306977 -8.98632,2.166016 -0.14096,-0.140961 0.15864,-4.602426 0.66601,-9.9140633 0.70151,-7.3442748 0.55108,-9.65820295 -0.62695,-9.65820295 -3.60373,0 -31.16981,9.10647905 -43.72266,14.44335925 -29.55954,12.567312 -59.39429,32.665938 -85.21484,57.408203 -7.54686,7.2317 -13.99833,13.148438 -14.33789,13.148438 -0.33955,0 -0.86087,-3.364078 -1.1582,-7.474609 -0.29733,-4.110532 -0.89725,-7.830851 -1.33399,-8.267579 -0.43672,-0.436728 -7.15142,2.269398 -14.92187,6.011719 -41.43184,19.95396 -75.1696,48.36977 -105.37891,88.75977 -3.4375,4.59595 -6.61544,8.38266 -7.0625,8.41406 -0.44705,0.0314 -1.48786,-2.75586 -2.3125,-6.19336 -0.82464,-3.4375 -1.76732,-6.25 -2.09375,-6.25 -1.22163,0 -19.1915,14.04429 -29.48437,23.04297 -26.17052,22.87982 -49.886715,55.76405 -68.351564,94.77539 -16.543853,34.95279 -23.793192,68.38789 -24.238281,111.78906 l -0.207031,20.23047 -3.496094,-3.33398 C 39.429138,404.80774 37.618795,403.93724 37.099158,404.6582 7.8497989,445.23989 -2.9399489,482.55048 0.67142298,530.61524 3.8931344,573.4939 12.554796,603.95791 32.485876,642.51367 c 6.466534,12.50923 8.603548,17.68257 7.117188,17.23243 -5.360811,-1.62348 -14.391711,-3.26064 -14.943359,-2.70899 -2.041089,2.04108 6.740646,42.11694 13.443359,61.34961 12.632613,36.24785 42.911358,83.29067 73.818356,114.6875 6.59854,6.70312 11.53308,12.1875 10.96484,12.1875 -2.131,0 -0.85113,2.88413 5.4336,12.24414 27.31653,40.68324 57.26919,68.05769 102.63281,93.79688 33.57309,19.04929 60.73704,27.09754 117.04883,34.68164 l 5.52148,0.74414 -6.77148,3.70117 c -7.47417,4.08469 -22.39844,13.62371 -22.39844,14.31641 0,0.2418 6.79169,4.9327 15.09375,10.4258 41.8452,27.6869 82.58808,41.5145 140.53125,47.6953 14.72359,1.5706 39.9626,0.9392 55.625,-1.3926 8.68219,-1.2927 10.29875,-1.1496 21.875,1.9414 8.57138,2.2886 17.01791,3.5454 26.875,3.998 16.14304,0.7414 24.57374,-0.5562 34.99414,-5.3867 12.38588,-5.7417 18.58175,-11.4191 34.9375,-32.0117 0.38082,-0.4794 0.71529,3.1768 0.74219,8.125 0.0367,6.7459 0.7277,10.289 2.76367,14.1641 3.56571,6.7866 9.67981,12.7888 15.91016,15.6191 3.1999,1.4536 8.00492,2.2926 13.21875,2.3106 13.91167,0.047 24.52944,-6.9193 30.2832,-19.8692 1.96065,-4.4128 2.3329,-7.3754 1.85937,-14.7539 -0.32587,-5.0779 -0.20386,-8.7808 0.27149,-8.2285 0.47535,0.5522 3.43937,4.4153 6.58594,8.584 12.4202,16.4549 27.07346,26.8004 43.28711,30.5625 10.19557,2.3657 33.02747,0.9315 48.27148,-3.0332 l 12.5,-3.252 17.5,2.0352 c 46.48297,5.4072 109.60579,-5.6857 153.75004,-27.0196 23.1461,-11.186 50.3871,-29.1474 48.2012,-31.7812 -0.6882,-0.8291 -6.8579,-4.83338 -13.711,-8.89842 -6.8531,-4.06503 -12.274,-7.57556 -12.0468,-7.80274 0.2272,-0.22717 6.801,-1.24307 14.6093,-2.25781 57.7391,-7.50354 101.0239,-25.07674 146.3028,-59.39843 12.9853,-9.84291 35.1527,-31.27192 45.0371,-43.53516 11.4068,-14.15216 25.3661,-35.48861 23.6035,-36.07617 -0.8344,-0.27809 4.308,-6.49446 11.4277,-13.81446 32.7837,-33.70674 60.8831,-78.43045 73.9922,-117.76757 4.8487,-14.54946 10.1517,-37.13546 12.3809,-52.72852 0.7678,-5.37189 0.7725,-5.3707 -9.4844,-2.95703 -3.9531,0.93025 -7.1875,1.55707 -7.1875,1.39258 0,-0.1645 3.9037,-7.82507 8.6758,-17.02344 22.5714,-43.5065 31.7421,-80.34961 31.8496,-127.97461 0.073,-32.04452 -3.6037,-49.85102 -15.5625,-75.37891 -4.9021,-10.46415 -20.3995,-35.24609 -22.041,-35.24609 -0.4869,0 -2.1007,1.14161 -3.586,2.53711 l -2.7011,2.53711 -0.7735,-23.47461 C 1328.6512,338.1075 1321.2342,307.9947 1301.4937,269 c -21.355,-42.18354 -48.4647,-75.48919 -81.8261,-100.52734 -10.6766,-8.01293 -12.7623,-8.77495 -12.8711,-4.69922 -0.031,1.16256 -0.7513,3.74257 -1.6016,5.73437 l -1.5469,3.6211 -11.209,-14.24024 c -21.2668,-27.01567 -43.5557,-48.23671 -67.4101,-64.185545 -11.5066,-7.693192 -45.1973,-25.691406 -48.0918,-25.691406 -0.734,0 -1.3377,1.546875 -1.3477,3.4375 -0.01,1.890625 -0.3578,5.522883 -0.7793,8.072266 l -0.7675,4.634765 -13.2813,-12.15039 C 1032.774,47.401385 1013.5836,33.746227 987.47806,20.859375 972.89747,13.661736 944.36835,3.1378498 933.27298,0.86328125 Z m -544.7168,275.32422 v 19.34375 19.34375 H 367.439 350.52298 l 0.35352,-14.57227 0.35156,-14.57031 13.125,-3.44336 c 7.21875,-1.89329 14.67187,-4.03998 16.5625,-4.77148 z m 606.51172,0.35156 c 0.19831,0.002 0.42253,0.0662 0.67578,0.16406 4.82261,1.86283 28.39314,8.17188 30.52934,8.17188 2.0841,0 2.2832,1.30807 2.2832,15 v 15 h -17.5 -17.50004 v -19.50781 c 0,-15.80977 0.12355,-18.8416 1.51172,-18.82813 z m 97.23832,96.67969 5.209,7.39063 c 7.8804,11.17969 15.3638,20.02655 26.959,31.87695 l 10.5039,10.73633 -1.9864,7.67187 c -7.7251,29.81217 -7.4575,72.28692 0.6934,109.9082 l 2.5234,11.65039 -6.164,7.77344 c -9.3742,11.81929 -18.1367,25.81638 -25.0684,40.04492 -6.0777,12.47539 -16.6083,41.82007 -18.3047,51.01172 -0.543,2.94187 -2.1126,5.47979 -4.4726,7.22461 -2.0005,1.47902 -8.1393,6.66193 -13.6406,11.51758 l -10.002,8.82813 V 532.875 387.76172 h 16.875 16.875 v -7.70312 z m -802.50004,2.78516 v 6.31054 6.31055 h 17.5 17.5 v 145 c 0,79.75 -0.1755,145 -0.39062,145 -0.21513,0 -2.04326,-1.74198 -4.0625,-3.87109 -2.01925,-2.12912 -7.96813,-7.46842 -13.21876,-11.86524 -7.86307,-6.58447 -9.70217,-8.82254 -10.42773,-12.6914 -1.81711,-9.68916 -10.96446,-35.18823 -17.50391,-48.78907 -7.21042,-14.99637 -17.50608,-31.59663 -26.25586,-42.33789 l -5.33789,-6.55469 1.66993,-7.25781 c 8.72698,-37.93222 9.68746,-74.676 2.8457,-108.79101 l -2.5625,-12.78125 11.68359,-12.62696 c 6.42674,-6.94492 15.48242,-17.67424 20.12305,-23.84179 z M 483.73587,815.7207 c 14.79425,0.0427 49.27629,0.23532 89.14649,0.50196 l 96.65625,0.64648 -4.5625,4.42969 c -7.26404,7.05553 -9.89272,13.2225 -9.94922,23.33789 -0.0369,6.6106 0.63084,10.1085 2.72851,14.30664 1.5271,3.05624 2.58416,5.74983 2.34961,5.98438 -0.23455,0.23455 -4.85979,-1.13268 -10.27734,-3.03711 -8.85007,-3.11106 -11.49937,-3.45909 -26.09961,-3.42969 -14.9917,0.0302 -17.15002,0.34233 -27.88281,4.04101 -13.45555,4.637 -13.64515,4.64912 -22.74219,1.28711 -3.78125,-1.39745 -23.41425,-7.72148 -43.62891,-14.05273 l -36.7539,-11.51172 -8.43946,-11.16797 c -4.64186,-6.14294 -8.35259,-11.24057 -8.24609,-11.32617 0.0266,-0.0214 2.76976,-0.024 7.70117,-0.01 z m 407.49024,0.0391 c 4.97237,-0.005 7.74441,0.007 7.7832,0.0391 0.15515,0.12931 -3.21985,5.09937 -7.5,11.04492 l -7.78125,10.81055 -18.125,5.72851 c -9.96875,3.15042 -30.32465,9.72475 -45.23633,14.60938 l -27.11328,8.88086 -7.26172,-2.69727 c -22.99142,-8.53933 -47.45861,-8.31327 -67.73242,0.625 -3.69492,1.62899 -6.95681,2.96094 -7.25,2.96094 -0.2932,0 0.82362,-1.82813 2.48242,-4.0625 9.5059,-12.80436 7.16594,-33.27827 -4.94336,-43.25977 l -4.32812,-3.5664 97.2539,-0.6543 c 40.11706,-0.26993 74.83484,-0.44365 89.75196,-0.45898 z m -193.29493,61.25976 -4.60156,4.07031 v -0.002 c -2.53093,2.23781 -5.19345,4.0925 -5.91797,4.1211 -0.72451,0.0286 -3.08792,-1.77539 -5.25,-4.00977 l -3.92968,-4.0625 9.84961,-0.0586 z m -10.90429,106.53516 c 0.96547,0.19557 5.41849,5.78855 10.33594,13.03125 5.24529,7.72553 9.38578,14.19153 9.20117,14.36913 -0.18463,0.1776 -2.51262,-0.7974 -5.17188,-2.1661 -6.91171,-3.5575 -16.71134,-4.3005 -23.99609,-1.8183 -3.28142,1.1181 -6.1986,1.8015 -6.48242,1.5176 -0.44868,-0.4486 13.40971,-22.06121 15.96679,-24.90038 0.0325,-0.0361 0.0821,-0.0462 0.14649,-0.0332 z" />
  <path
     id="path1008"
     style="fill:#fec910;fill-opacity:1"
     d="m 718.09608,764.32422 c -0.004,-25.20486 -0.52748,-44.06175 -1.30003,-46.84343 -1.93305,-6.96031 -8.56223,-14.80676 -15.54616,-18.40082 -4.83573,-2.48855 -8.00552,-3.18305 -14.36347,-3.14701 -9.74068,0.0553 -16.13297,2.9671 -22.86058,10.41376 -7.81883,8.6545 -8.42278,12.8355 -8.42278,58.30854 0,22.10438 0.375,40.5648 0.83334,41.02312 0.45832,0.45834 14.52082,0.83334 31.25,0.83334 h 30.41666 l -0.008,-42.1875 z M 518.10306,596.51172 v -208.75 h -93.75 -93.75 v 208.75 208.75 h 93.75 93.75 z m 128.75,165.15716 c 0,-35.48281 0.34755,-44.57791 1.86814,-48.88772 6.39833,-18.1348 26.7883,-29.94852 45.44811,-26.33213 13.82344,2.67908 23.91117,10.65185 30.05736,23.75565 l 3.25139,6.93204 0.37209,44.0625 0.37207,44.0625 h 58.69043 58.69041 v -161.875 -161.875 h -19.375 -19.375 v 21.875 21.875 h -43.75 -43.75 v -21.875 -21.875 h -31.875 -31.875 v 21.875 21.875 h -44.375 -44.375 v -21.875 -21.875 h -19.375 -19.375 v 161.875 161.875 h 59.375 59.375 z M 1044.3531,596.51172 v -208.75 h -93.75004 -93.75 v 208.75 208.75 h 93.75 93.75004 z m -493.75004,-268.75 v -48.75 h -23.125 -23.125 v 23.125 23.125 h -30.625 -30.625 v -23.125 -23.125 h -23.125 -23.125 v 23.125 23.125 h -29.375 -29.375 v -23.125 -23.125 h -20 -20 v 48.75 48.75 h 126.25 126.25 z m 526.25004,0 v -48.75 h -20.625 -20.625 v 23.125 23.125 h -28.75 -28.75004 v -23.125 -23.125 h -23.125 -23.125 v 23.125 23.125 h -31.25 -31.25 v -23.125 -23.125 h -22.5 -22.5 v 48.75 48.75 h 126.25 126.25004 z" />
  <path
     id="path1012"
     style="fill:#000000;fill-opacity:1"
     d="m 458.30033,406.41602 c -8.4818,-0.25462 -17.28835,4.58922 -22.23243,14.6582 -3.54894,7.22768 -3.59484,7.61146 -4.01172,33.25 l -0.42187,25.9375 h 25.29102 25.28906 l -0.90235,-26.36523 c -0.6104,-17.84527 -1.49178,-28.0397 -2.72851,-31.54493 -3.6435,-10.32678 -11.80141,-15.68092 -20.2832,-15.93554 z m 525.39453,0.0957 c -6.63785,0 -9.63144,1.29817 -15.25196,6.61719 -6.26624,5.93009 -7.54114,12.13276 -8.46679,41.19531 l -0.82422,25.9375 h 25.09961 25.1016 v -22.43945 c 0,-12.34116 -0.5981,-25.22326 -1.3281,-28.62696 -2.9538,-13.77306 -12.5117,-22.68359 -24.33014,-22.68359 z m -69.58594,0.0645 c -4.67932,0.16132 -7.61823,1.5799 -11.54688,5.0293 -7.98591,7.01173 -9.45898,13.72224 -9.45898,43.07813 v 25.57807 h 24.44336 24.44531 l -0.38281,-26.60156 c -0.36645,-25.56021 -0.50376,-26.84082 -3.51172,-32.67969 -4.39111,-8.52374 -10.83262,-13.42684 -18.62695,-14.17578 -2.04764,-0.19675 -3.80156,-0.28229 -5.36133,-0.22852 z m -524.03711,0.0625 c -6.78024,-0.009 -11.82473,2.45181 -16.71875,8.01172 -7.00237,7.9551 -7.75,11.85338 -7.75,40.44336 v 25.16792 h 24.48047 24.48047 l -0.43164,-27.1875 c -0.42515,-26.75115 -0.48567,-27.2914 -3.82032,-33.64062 -4.21921,-8.03346 -9.48412,-11.89705 -17.22265,-12.64063 -1.04402,-0.10032 -2.04897,-0.15294 -3.01758,-0.1543 z m 0.37695,9.10938 c 1.17101,-0.0392 2.29628,0.41307 4.22461,1.32812 7.9531,3.77399 9.00453,7.35209 9.46875,32.24805 l 0.41406,22.18745 h -14.55664 -14.55468 l 0.39258,-22.41211 c 0.43971,-25.17938 1.09693,-27.24687 10.11132,-31.73047 2.11189,-1.05041 3.329,-1.58186 4.5,-1.62109 z m 67.33008,0.41211 c 2.55328,0.0157 5.03914,0.88679 7.01563,2.65234 5.6832,5.07667 6.39416,8.49972 6.41406,30.82422 l 0.0195,21.25 -14.6875,0.35156 -14.6875,0.35352 0.0957,-19.72852 c 0.10325,-21.41949 0.99026,-25.68303 6.58008,-31.60547 2.57139,-2.72439 5.96721,-4.11786 9.25,-4.09765 z m 525.64844,0 c 3.28279,-0.0202 6.67861,1.37326 9.25,4.09765 5.5878,5.92027 6.47683,10.18881 6.58008,31.56641 l 0.0957,19.68745 H 984.939 c -11.63618,0 -14.55214,-0.361 -15.13086,-1.86914 -0.39429,-1.0275 -0.497,-10.73062 -0.22852,-21.5625 0.50695,-20.45365 1.43858,-24.44972 6.83203,-29.26758 1.97649,-1.76555 4.46235,-2.63662 7.01563,-2.65234 z m -66.8086,0.0176 c 1.01152,-0.006 2.03885,0.13442 3.06836,0.42968 5.05594,1.45003 7.19095,3.46474 9.83594,9.2793 1.89632,4.16875 2.27984,8.37693 2.30274,25.3125 l 0.0273,20.31243 h -14.375 -14.375 v -21.29883 c 0,-19.0305 0.27471,-21.83821 2.57227,-26.34179 2.49143,-4.88365 6.56011,-7.66621 10.94335,-7.69336 z m 67.4961,117.75586 c -6.05639,-0.17244 -12.15499,2.40332 -16.91797,8.18164 -5.4704,6.63656 -6.38186,11.76604 -7.2832,40.95898 l -0.80078,25.93743 h 25.11914 25.12113 V 585.5332 c 0,-15.63991 -0.5617,-25.64389 -1.6836,-29.96875 -3.4827,-13.42611 -13.46073,-21.34346 -23.55472,-21.63085 z m -375.61719,0.18945 c -9.8691,-0.003 -19.82602,6.7832 -23.625,19.40625 -1.26914,4.21702 -1.76953,12.89465 -1.76953,30.68164 v 24.80071 h 24.45898 24.46094 l -0.39844,-28.4375 c -0.37206,-26.65135 -0.57223,-28.76677 -3.19726,-33.67773 -4.63052,-8.66286 -12.25372,-12.77133 -19.92969,-12.77344 z m -149.89062,0.008 c -7.61937,-0.25567 -15.39245,3.40784 -19.92969,9.95508 -5.61074,8.0963 -6.82422,15.46249 -6.82422,41.44726 v 23.47826 h 25.1875 25.18945 l -0.87695,-26.5625 c -0.48193,-14.60938 -1.49021,-28.64024 -2.24023,-31.17969 -1.80014,-6.09496 -7.93993,-13.39789 -13.06446,-15.53906 -2.37995,-0.99441 -4.90161,-1.51439 -7.4414,-1.59961 z m -68.13086,0.0527 c -0.59296,0.0117 -1.19844,0.0427 -1.81446,0.0937 -8.66262,0.71838 -14.8342,5.34553 -19.62109,14.70899 -3.4325,6.71373 -3.4375,6.76472 -3.4375,33.375 v 26.65021 h 24.46289 24.46094 l -0.39844,-27.1875 c -0.39609,-26.92826 -0.4331,-27.25634 -3.92969,-34.37695 -4.50337,-9.17089 -10.82834,-13.43938 -19.72265,-13.26367 z m 375.2539,0 c -8.89432,-0.17571 -15.21928,4.09278 -19.72265,13.26367 -3.49659,7.12061 -3.5336,7.44869 -3.92969,34.37695 l -0.39844,27.18728 h 24.46094 24.46289 v -26.65039 c 0,-26.61028 -0.005,-26.66127 -3.4375,-33.375 -4.78689,-9.36346 -10.95847,-13.99061 -19.62109,-14.70899 -0.61602,-0.0511 -1.2215,-0.082 -1.81446,-0.0937 z m 150.61328,0.0195 c -0.49422,0.0112 -0.99332,0.0385 -1.49414,0.0801 -8.26,0.68499 -14.1437,4.93656 -18.17968,13.13282 -2.77726,5.64007 -2.96239,7.51431 -3.32032,33.7832 l -0.3789,27.81228 h 24.4414 24.44141 v -24.80078 c 0,-27.09449 -1.03432,-33.27858 -6.8418,-40.89258 -4.62397,-6.06234 -11.25456,-9.2838 -18.66797,-9.11523 z m -150.46093,9.70117 c 4.87491,0.0227 9.84368,3.3313 12.6875,9.32422 1.62429,3.42294 2.0332,8.46239 2.0332,25.03515 v 20.74786 h -14.375 -14.375 v -19.69531 c 0,-21.84269 0.87212,-26.59438 5.83398,-31.77344 2.3792,-2.48335 5.27037,-3.65229 8.19532,-3.63867 z m -156.94727,0.0723 c 1.9474,0.0217 3.86309,0.45222 5.49609,1.32618 1.32756,0.71049 3.54074,3.50154 4.91797,6.20117 2.21544,4.34261 2.50391,7.3644 2.50391,26.20898 v 21.2986 h -14.375 -14.375 V 578.9707 c 0,-21.87051 0.96091,-26.24258 6.99414,-31.83398 2.25862,-2.09321 5.59223,-3.1964 8.83789,-3.16016 z m -218.86523,0.0156 c 3.04508,-0.0709 6.05957,1.05652 8.44922,3.55078 4.96186,5.17886 5.83398,9.93055 5.83398,31.77324 v 19.69531 h -14.375 -14.375 V 578.3457 c 0,-14.73404 0.49381,-21.84798 1.72266,-24.78906 2.50625,-5.99829 7.66899,-9.44621 12.74414,-9.56445 z m 67.28125,0.0193 c 4.39715,-0.10997 8.74637,2.47122 11.66406,7.88867 1.72839,3.20922 2.23731,8.19114 2.61523,25.54883 l 0.47071,21.5625 h -15.125 -15.12305 l 0.0273,-19.6875 c 0.023,-16.45652 0.40825,-20.5236 2.34375,-24.78516 3.09814,-6.82142 8.14352,-10.40271 13.12696,-10.52734 z m 526.5039,0 c 4.98344,0.12463 10.02882,3.70592 13.12696,10.52734 1.9355,4.26156 2.32075,8.32864 2.34375,24.78516 l 0.0273,19.6875 h -15.12305 -15.125 l 0.47071,-21.5625 c 0.37792,-17.35769 0.88684,-22.33961 2.61523,-25.54883 2.91769,-5.41745 7.26691,-7.99864 11.66406,-7.88867 z m -67.39062,0.0586 c 2.81588,0.0592 5.70779,0.88956 7.86523,2.42579 6.16418,4.38928 7.52344,10.26531 7.52344,32.54101 v 19.9746 h -14.375 -14.375 l 0.0273,-20.9375 c 0.0234,-17.8356 0.37882,-21.7089 2.39454,-26.14844 1.30145,-2.8664 3.50237,-5.81953 4.89062,-6.5625 1.71622,-0.91849 3.8587,-1.33901 6.04883,-1.29297 z" />
  <metadata
     id="metadata3342">
    <rdf:RDF>
      <cc:Work
         rdf:about="">
        <dc:format>image/svg+xml</dc:format>
        <dc:type
           rdf:resource="http://purl.org/dc/dcmitype/StillImage" />
        <dc:title />
      </cc:Work>
    </rdf:RDF>
  </metadata>
  <defs
     id="defs3340" />
  <sodipodi:namedview
     pagecolor="#ffffff"
     bordercolor="#666666"
     borderopacity="1"
     objecttolerance="10"
     gridtolerance="10"
     guidetolerance="10"
     inkscape:pageopacity="0"
     inkscape:pageshadow="2"
     inkscape:window-width="1920"
     inkscape:window-height="1017"
     id="namedview3338"
     showgrid="false"
     inkscape:zoom="0.56040481"
     inkscape:cx="710.69279"
     inkscape:cy="480.11477"
     inkscape:window-x="-8"
     inkscape:window-y="-4"
     inkscape:window-maximized="1"
     inkscape:current-layer="svg3336"
     inkscape:document-rotation="0" />
  <path
     style="fill:#fec910;fill-opacity:1"
     d="m 939.1436,53.074219 c -2.69334,-8.765625 -5.30728,-17.34375 -5.80878,-19.0625 -0.76594,-2.625086 -2.48339,-3.573066 -10.73592,-5.925895 -47.63149,-13.579906 -91.51971,-16.214598 -137.60609,-8.260746 -4.4778,0.772805 -2.31479,1.515952 21.25,7.300891 36.18499,8.883078 61.64845,16.356634 101.86025,29.896102 18.90625,6.365808 34.72656,11.667673 35.15625,11.781922 0.42969,0.11425 -1.42237,-6.964149 -4.11571,-15.729774 z"
     id="path1194" />
  <path
     style="fill:#fec910;fill-opacity:1"
     d="m 514.16803,41.957868 c 12.61699,-3.800422 35.96046,-10.154589 51.87438,-14.120373 l 28.9344,-7.210516 -8.38923,-1.460923 c -23.83567,-4.150802 -52.32188,-5.124737 -75.72128,-2.588888 -14.51325,1.572835 -44.52949,7.469467 -58.27472,11.447957 l -9.88648,2.861594 -2.84769,10.625 c -1.56622,5.84375 -4.00794,13.947435 -5.42603,18.008187 -1.41807,4.060754 -2.57832,7.80611 -2.57832,8.323014 0,0.516904 13.35937,-3.541055 29.6875,-9.017685 16.32812,-5.47663 40.01049,-13.066945 52.62747,-16.867367 z"
     id="path1192" />
  <path
     style="fill:#fec910;fill-opacity:1"
     d="M 827.9976,87.656611 C 820.72085,83.47514 809.8208,76.396427 803.77526,71.926137 l -10.99188,-8.1278 -16.03393,3.218471 c -18.13446,3.640102 -34.96196,8.763918 -50.89883,15.49821 l -10.87256,4.594315 57.5,3.925556 c 31.625,2.159057 60.03125,3.992798 63.125,4.074977 l 5.625,0.149421 z"
     id="path1190" />
  <path
     style="fill:#fec910;fill-opacity:1"
     d="m 605.99535,90.716491 53.51729,-3.443612 -4.53893,-2.328606 c -14.0289,-7.197256 -41.03998,-15.54987 -61.6037,-19.049664 l -11.60806,-1.975605 -5.26694,4.268635 c -7.37867,5.980098 -22.62176,16.036751 -33.5346,22.124507 l -9.23235,5.150295 9.375,-0.651168 c 5.15625,-0.358143 33.45777,-2.200794 62.89229,-4.094781 z"
     id="path1188" />
  <path
     style="fill:#fec910;fill-opacity:1"
     d="m 925.15102,113.38672 c 0.81049,-2.11208 10.15034,-2.34398 29.82704,-0.74058 6.1875,0.5042 11.43123,0.78962 11.65274,0.63426 0.2215,-0.15537 -0.99003,-2.48875 -2.69229,-5.18531 -1.70226,-2.69656 -5.67659,-9.918642 -8.83183,-16.049082 l -5.73681,-11.146253 -25.3209,-8.493549 C 867.05024,53.286774 828.87885,42.092986 791.57505,33.558132 l -18.40303,-4.210486 2.36237,3.317623 c 3.35971,4.718289 20.58738,20.954345 29.44367,27.748909 26.17323,20.080166 55.58451,34.711387 96.54555,48.028482 23.54129,7.65365 22.65854,7.46893 23.62741,4.94406 z"
     id="path1186" />
  <path
     style="fill:#fec910;fill-opacity:1"
     d="m 474.97806,108.14903 c 50.37233,-16.212812 84.34504,-35.441061 114.0625,-64.558324 7.04687,-6.904551 12.8125,-12.949602 12.8125,-13.433446 0,-0.997637 -0.14795,-0.965407 -35,7.624819 -33.1618,8.173616 -60.96481,16.430009 -105,31.180836 l -35.625,11.933599 -5.63185,10.620103 c -3.09751,5.841056 -7.24534,13.370453 -9.21739,16.731993 l -3.58554,6.11188 2.96739,-0.72931 c 1.63207,-0.40111 10.66219,-1.12185 20.06693,-1.60162 14.715,-0.75068 17.37564,-0.59623 19.0794,1.10752 2.1909,2.1909 3.69817,1.89102 25.07106,-4.98805 z"
     id="path1184" />
  <path
     style="fill:#fec910;fill-opacity:1"
     d="m 828.63053,133.95342 c 17.07614,-6.77712 43.98497,-14.20125 56.66003,-15.63246 4.29687,-0.48519 7.81137,-1.23137 7.81001,-1.6582 -10e-4,-0.42682 -6.3295,-2.88023 -14.0625,-5.45201 l -14.06001,-4.67598 -76.85464,-4.92772 c -42.27005,-2.710247 -76.99286,-4.789498 -77.1618,-4.62056 -0.16893,0.16894 4.60315,3.57004 10.60464,7.55799 21.02037,13.96792 49.77673,25.96155 77.90045,32.49053 7.15624,1.66135 13.06931,3.06699 13.14016,3.12366 0.0709,0.0566 7.28149,-2.73569 16.02367,-6.20525 z"
     id="path1182" />
  <path
     style="fill:#fec910;fill-opacity:1"
     d="m 582.47806,135.24706 c 25.6238,-6.3959 51.47312,-17.53632 71.63994,-30.87503 5.71446,-3.77966 10.20445,-7.05759 9.97773,-7.284297 -0.2267,-0.226709 -34.71467,1.784872 -76.63993,4.470177 l -76.22774,4.88238 -14.15731,4.68349 c -14.69219,4.86044 -17.84919,6.63093 -11.85396,6.64785 11.42901,0.0323 52.07461,11.34599 69.10028,19.2341 7.48424,3.46749 7.13649,3.48921 28.16099,-1.75867 z"
     id="path1180" />
  <path
     style="fill:#fec910;fill-opacity:1"
     d="m 1079.2349,134.72792 c -1.1729,-5.7936 -2.714,-16.05922 -3.4247,-22.81251 l -1.292,-12.278691 -14.77,-14.184335 C 1026.2301,53.263543 996.30288,33.159183 963.10306,20.528652 l -9.375,-3.566623 63.75004,64.03511 c 35.0625,35.219311 63.7814,64.086741 63.8197,64.149841 0.038,0.0631 -0.8899,-4.62547 -2.0629,-10.41906 z"
     id="path1178" />
  <path
     style="fill:#fec910;fill-opacity:1"
     d="m 1040.0433,117.3326 c -14.8607,-15.36101 -43.30851,-43.809327 -63.21731,-63.218481 -40.58627,-39.56768 -37.68435,-38.336208 -31.16984,-13.2274 5.65251,21.786409 12.76359,38.272029 26.57065,61.598781 5.09989,8.61616 8.45279,13.00143 10.17822,13.31217 1.41516,0.25485 10.02726,2.22605 19.13808,4.38043 19.1181,4.52079 30.4415,8.64963 49.685,18.11649 7.5625,3.72039 14.219,6.80997 14.7923,6.86574 0.5733,0.0558 -11.1165,-12.46671 -25.9771,-27.82773 z"
     id="path1176" />
  <path
     style="fill:#fec910;fill-opacity:1"
     d="m 356.34871,124.77508 c 5.56636,-1.83748 16.51784,-4.69574 24.33661,-6.35168 15.9295,-3.37372 14.49385,-2.25691 24.39525,-18.977291 8.32332,-14.05547 15.4343,-29.365272 20.52251,-44.184452 4.11513,-11.985156 9.25239,-33.664198 8.22162,-34.694967 -0.72004,-0.720035 -115.41763,113.06068 -120.85656,119.89044 l -3.63969,4.57043 18.44981,-8.4558 c 10.14739,-4.65068 23.0041,-9.95919 28.57045,-11.79668 z"
     id="path1174" />
  <path
     style="fill:#fec910;fill-opacity:1"
     d="m 382.80581,56.033711 c 20.8356,-20.544153 37.65364,-37.582268 37.37342,-37.862478 -0.82057,-0.82058 -18.51596,6.535651 -32.00712,13.305836 -23.79651,11.941649 -45.81803,28.42395 -71.51453,53.526019 l -15.82046,15.454502 -0.87806,8.96456 c -0.80849,8.25422 -2.96635,21.78947 -5.07124,31.80939 -0.74009,3.52309 2.69299,0.46874 24.58745,-21.87499 13.9962,-14.28341 42.49495,-42.778684 63.33054,-63.322839 z"
     id="path1172" />
  <path
     style="fill:#fec910;fill-opacity:1"
     d="m 936.50118,138.90988 -7.39711,-15.10184 -10.81301,0.81598 c -17.69705,1.33546 -31.31486,3.10071 -44.48675,5.76673 -13.18589,2.66886 -37.18491,10.28595 -47.57625,15.10031 l -6.25,2.89566 40,0.76345 c 35.604,0.67955 79.10579,3.04148 80.52084,4.37188 0.28645,0.26932 1.16851,0.48967 1.96011,0.48967 0.79161,0 -1.88941,-6.79582 -5.95783,-15.10184 z"
     id="path1170" />
  <path
     style="fill:#fec910;fill-opacity:1"
     d="m 454.97806,151.42168 c 8.25,-0.71916 34.34694,-1.63791 57.9932,-2.04166 47.78341,-0.81586 46.36365,-0.3236 24.5068,-8.49709 -23.55524,-8.8086 -49.77801,-14.13848 -80.22369,-16.3058 l -11.47368,-0.81676 -2.84475,6.68817 c -1.5646,3.67851 -4.69832,10.21188 -6.9638,14.51863 -2.2655,4.30675 -4.11908,8.06826 -4.11908,8.35891 0,0.29065 1.82813,0.27528 4.0625,-0.0341 2.23438,-0.30947 10.8125,-1.15105 19.0625,-1.87023 z"
     id="path1168" />
  <path
     style="fill:#fec910;fill-opacity:1"
     d="m 977.72102,197.80339 c -5.8664,-6.16457 -14.46063,-16.28957 -19.0983,-22.5 -4.63767,-6.21042 -8.7612,-11.29887 -9.1634,-11.30766 -0.40218,-0.009 -9.45001,-0.88275 -20.10626,-1.9421 -17.77243,-1.76679 -109.58768,-4.05494 -115.58266,-2.88046 -3.36137,0.65852 17.85935,14.3455 34.71916,22.39324 30.56481,14.58956 57.51095,20.98168 112.1135,26.59542 2.40625,0.24739 9.64205,0.53981 16.07956,0.64984 l 11.70457,0.20005 z"
     id="path1166" />
  <path
     style="fill:#fec910;fill-opacity:1"
     d="m 425.0898,207.11363 c 43.07637,-4.11112 71.43357,-11.27991 101.49696,-25.65877 19.1481,-9.15825 38.28925,-21.43625 34.6413,-22.2205 -1.375,-0.2956 -23.3125,-0.21688 -48.75,0.17495 -41.44084,0.63834 -52.9748,1.22223 -80.10784,4.05542 l -7.60784,0.7944 -7.24348,10.01524 c -3.98392,5.50837 -12.58249,15.57771 -19.10793,22.37629 l -11.86445,12.36106 h 9.3275 c 5.13013,0 18.27723,-0.85414 29.21578,-1.89809 z"
     id="path1164" />
  <path
     style="fill:#fec910;fill-opacity:1"
     d="m 236.89087,226.86064 c 7.19795,-3.58935 17.58719,-8.1099 23.08719,-10.04568 7.35569,-2.5889 17.1066,-8.15634 36.875,-21.05435 44.78125,-29.21779 76.6491,-48.43729 107.91474,-65.08338 l 15.21026,-8.09806 -8.75,0.76585 c -14.26812,1.24882 -37.76445,6.46065 -53.7767,11.92844 -16.36753,5.58911 -51.31189,22.25232 -68.0983,32.47267 -28.44935,17.32128 -55.80746,43.33921 -65.55309,62.34188 -1.18506,2.31071 -1.66902,3.99821 -1.07547,3.75 0.59355,-0.24822 6.96841,-3.38803 14.16637,-6.97737 z"
     id="path1162" />
  <path
     style="fill:#fec910;fill-opacity:1"
     d="m 1151.1359,229.06391 c -5.0793,-9.33227 -18.1531,-25.07393 -28.3386,-34.12124 -31.8494,-28.29058 -81.5711,-54.46585 -124.05284,-65.30584 -15.11019,-3.85564 -40.0504,-7.88278 -41.26935,-6.66383 -0.29261,0.29262 5.21334,3.56141 12.23546,7.26397 30.87353,16.27872 65.71973,37.26436 109.40203,65.88587 20.1145,13.17944 28.1017,17.65637 38.4725,21.56447 7.1984,2.71261 18.2754,7.72271 24.6155,11.13357 6.3401,3.41085 11.7032,6.2554 11.918,6.3212 0.2148,0.0658 -1.1274,-2.66937 -2.9827,-6.07817 z"
     id="path1160" />
  <path
     style="fill:#fec910;fill-opacity:1"
     d="m 1023.0585,237.34931 c -1.0067,-0.91432 -6.6117,-5.32975 -12.4554,-9.81205 l -10.62504,-8.14965 -20.625,-0.73393 c -11.34375,-0.40365 -27.72452,-1.43019 -36.40171,-2.28119 -13.25398,-1.29986 -16.45199,-1.26757 -19.99972,0.20195 l -4.22299,1.74923 11.87471,2.81386 c 28.61444,6.78055 54.51125,12.05016 72.49975,14.7526 23.7649,3.57025 22.1497,3.45215 19.9554,1.45918 z"
     id="path1158" />
  <path
     style="fill:#fec910;fill-opacity:1"
     d="m 379.97806,234.58789 c 17.13944,-2.71267 28.15346,-5.00011 63.52721,-13.19358 12.17974,-2.82115 12.2492,-2.85848 8.75,-4.70229 -3.05656,-1.61058 -5.77893,-1.64811 -20.40221,-0.2813 -9.28125,0.8675 -25.82263,1.89021 -36.7586,2.2727 l -19.88361,0.69542 -11.99139,9.33883 c -6.59528,5.13635 -12.17848,9.50645 -12.40714,9.71134 -0.68843,0.61687 9.36198,-0.70677 29.16574,-3.84112 z"
     id="path1156" />
  <path
     style="fill:#fec910;fill-opacity:1"
     d="m 209.94665,192.76172 c 17.25884,-30.8078 40.0649,-66.62503 57.10714,-89.6875 4.69932,-6.359376 8.06868,-11.562501 7.48748,-11.562501 -1.51989,0 -22.09536,13.031761 -30.14122,19.090371 -19.78468,14.89802 -39.60754,35.41665 -59.57118,61.66208 l -10.55591,13.87744 1.5789,9.24756 c 0.92678,5.4281 1.56266,19.68236 1.53963,34.51206 l -0.0393,25.2645 12.62083,-24.6395 c 6.94144,-13.55174 15.92956,-30.54576 19.97358,-37.76451 z"
     id="path1154" />
  <path
     style="fill:#fec910;fill-opacity:1"
     d="m 1198.7281,229.32508 c 0,-14.9536 0.4688,-30.84461 1.0417,-35.31336 l 1.0418,-8.125 -8.4558,-11.25 c -28.626,-38.08538 -52.5319,-60.1979 -88.5365,-81.89439 -5.6769,-3.420907 -5.6178,-3.295052 5.5821,11.89439 25.6246,34.75233 57.6318,88.23377 81.3547,135.9375 4.3591,8.76562 7.9361,15.93789 7.9489,15.93836 0.013,4.6e-4 0.023,-12.23391 0.023,-27.1875 z"
     id="path1152" />
  <path
     style="fill:#fec910;fill-opacity:1"
     d="m 1178.1854,238.07422 c -15.6258,-30.85579 -31.1948,-58.55413 -47.459,-84.43319 -11.9061,-18.94457 -36.2115,-53.642751 -42.6448,-60.879311 l -3.8894,-4.375 0.6769,13.125001 c 1.2308,23.86224 8.6301,56.87397 13.8689,61.875 1.4404,1.375 7.3622,5.875 13.1596,10 13.8265,9.83786 35.4293,31.39646 43.0105,42.92248 3.3183,5.04486 7.7852,13.61362 9.9266,19.04168 3.6237,9.18552 4.6728,10.55763 15.1434,19.80628 6.1875,5.46539 11.4132,9.97475 11.6127,10.02081 0.1995,0.0461 -5.8329,-12.15062 -13.4054,-27.10375 z"
     id="path1150" />
  <path
     style="fill:#fec910;fill-opacity:1"
     d="m 197.60205,253.04981 c 7.92484,-7.12365 10.4591,-10.24765 11.66677,-14.38177 3.76674,-12.89431 15.67634,-30.36657 31.1786,-45.74131 8.29874,-8.23047 32.00802,-27.01529 36.05979,-28.5701 2.02756,-0.77805 7.06939,-16.79752 10.42644,-33.12811 2.88456,-14.0322 4.83489,-43.706964 2.73355,-41.591801 -7.71095,7.761675 -39.36058,54.130591 -55.81646,81.775021 -21.63201,36.33985 -52.97364,95.81225 -48.80325,92.60674 1.33681,-1.02752 6.98636,-5.96342 12.55456,-10.96867 z"
     id="path1148" />
  <path
     style="fill:#fec910;fill-opacity:1"
     d="m 1106.3187,268.69922 c -2.2039,-13.71136 -3.143,-23.7214 -3.1957,-34.0625 l -0.057,-11.25 -25.2938,-16.47619 c -34.07,-22.19304 -60.0868,-38.42967 -79.99749,-49.92525 -17.4633,-10.08231 -53.60848,-29.22356 -55.18442,-29.22356 -0.51129,0 1.88596,5.34824 5.32721,11.88497 22.7733,43.25834 58.4311,77.73136 117.6856,113.77534 11.3908,6.9289 38.1886,20.55431 40.4723,20.57822 0.6035,0.006 0.713,-2.37916 0.2433,-5.30103 z"
     id="path1146" />
  <path
     style="fill:#fec910;fill-opacity:1"
     d="m 278.51855,270.07957 c 20.00076,-8.77794 55.92654,-31.18271 79.4809,-49.56754 22.08272,-17.23617 44.05279,-40.42689 57.89585,-61.11254 7.79019,-11.64087 17.76817,-30.24402 16.76157,-31.25062 -0.36961,-0.36963 -7.87355,3.12026 -16.67542,7.75529 -35.95931,18.93603 -70.99866,40.01017 -120.06589,72.2127 l -24.0625,15.79207 -0.01,13.4889 c -0.009,11.9506 -1.01461,22.25751 -3.23894,33.17639 -0.38513,1.89062 -0.32797,3.4375 0.12704,3.4375 0.45501,0 4.85909,-1.76946 9.78683,-3.93215 z"
     id="path1144" />
  <path
     style="fill:#fec910;fill-opacity:1"
     d="m 1068.7859,267.49022 c 0.1914,-0.19441 -5.756,-4.151 -13.2164,-8.79241 -13.4449,-8.36461 -13.6724,-8.44995 -25.8279,-9.69071 -28.1997,-2.87847 -53.52571,-7.21952 -84.31064,-14.4514 -10.3721,-2.43658 -19.06755,-4.22097 -19.32321,-3.9653 -0.62541,0.62541 20.60904,14.47707 30.74531,20.05576 14.99611,8.25341 38.62655,16.85724 65.62504,23.89402 0.6875,0.17919 1.4263,-1.27266 1.6417,-3.22632 l 0.3917,-3.55214 z"
     id="path1142"
     sodipodi:nodetypes="cssssssscc" />
  <path
     style="fill:#fec910;fill-opacity:1"
     d="m 388.3183,263.97139 c 15.50617,-5.65917 36.64521,-16.30536 49.65584,-25.00802 6.34313,-4.24285 11.29968,-7.94755 11.01457,-8.23266 -0.28511,-0.28513 -7.49165,1.13237 -16.01453,3.14998 -32.45488,7.68303 -57.63933,12.06374 -87.30421,15.18612 -8.84698,0.93118 -14.08745,2.10715 -16.25,3.6465 -1.75555,1.24964 -7.97316,5.18427 -13.81691,8.74365 l -10.625,6.47157 45.625,-0.16681 v 3.66234 3.66233 l 13.65274,-3.65792 c 7.50901,-2.01185 18.33713,-5.36754 24.0625,-7.45708 z"
     id="path1140"
     sodipodi:nodetypes="sssssssccccss" />
  <path
     style="fill:#fec910;fill-opacity:1"
     d="m 1257.6804,409.03197 c -2.1739,-30.62559 -13.8177,-63.15856 -30.8937,-86.31713 -21.4208,-29.05113 -46.5262,-55.97647 -65.4019,-70.14287 -9.7511,-7.31835 -30.2401,-19.81025 -32.4923,-19.81025 -0.4792,0 4.3096,5.76562 10.6418,12.8125 33.9709,37.80501 61.2075,77.88646 82.3634,121.20601 5.0082,10.25489 11.1541,20.61864 15.2144,25.65569 3.7466,4.64794 9.8362,12.81017 13.5325,18.1383 3.6963,5.32812 6.9708,9.6875 7.2768,9.6875 0.3058,0 0.1973,-5.05339 -0.241,-11.22975 z"
     id="path1130" />
  <path
     style="fill:#fec910;fill-opacity:1"
     d="m 137.53893,393.38672 c 4.38063,-5.44054 10.98984,-16.60309 17.47435,-29.51306 16.09157,-32.03662 30.26505,-54.99833 50.41404,-81.67313 8.21614,-10.87716 14.39288,-18.23762 36.99136,-44.08044 l 4.94063,-5.64991 -8.06563,4.05751 c -14.05783,7.07199 -30.09315,18.92422 -44.67388,33.01993 -15.03971,14.5394 -36.57601,39.66586 -47.55797,55.48601 -17.28723,24.90324 -26.85111,53.04603 -29.6006,87.10309 l -0.80732,10 6.91985,-10 c 3.80591,-5.5 10.09025,-13.9375 13.96517,-18.75 z"
     id="path1128" />
  <path
     style="fill:#fec910;fill-opacity:1"
     d="m 1206.5919,418.67679 c 1.5751,-4.97203 5.3754,-14.32013 8.4451,-20.77353 l 5.5814,-11.73347 -9.4259,-18.90463 c -22.2913,-44.70753 -53.1817,-88.5049 -87.3718,-123.87844 l -10.8736,-11.25 0.6154,13.125 c 2.073,44.20706 23.1397,94.8485 62.3997,150 9.7611,13.71215 25.3157,32.51616 26.8654,32.47757 0.4953,-0.0125 2.1892,-4.09046 3.7643,-9.0625 z"
     id="path1126" />
  <path
     style="fill:#fec910;fill-opacity:1"
     d="m 193.53943,403.16907 c 22.98129,-30.57371 45.15147,-69.16568 54.45023,-94.78235 8.14209,-22.43018 12.75011,-44.02526 14.40337,-67.5 l 0.70428,-10 -8.80801,9.375 c -25.56157,27.207 -46.96872,54.2217 -63.50599,80.14124 -11.27423,17.67053 -27.19766,46.44401 -32.14684,58.08896 l -3.35341,7.89028 5.67365,12.87726 c 3.1205,7.0825 6.93502,16.4228 8.47671,20.75623 l 2.80309,7.87897 4.93215,-4.75397 c 2.71267,-2.61468 10.07952,-11.60191 16.37077,-19.97162 z"
     id="path1124" />
  <path
     style="fill:#fec910;fill-opacity:1"
     d="m 226.80737,415.07474 c 12.79763,-8.47433 13.10288,-8.59923 14.1735,-5.79945 1.03943,2.71819 1.50199,2.42344 9.24095,-5.88857 10.88694,-11.6931 24.39823,-29.15826 30.4906,-39.41325 l 4.96148,-8.35141 -0.34792,-17.73723 -0.34792,-17.73722 -18.23778,23.49456 c -10.03077,12.922 -30.72103,40.27437 -45.97836,60.78305 l -27.7406,37.2885 10.35336,-8.98905 c 5.69437,-4.94397 16.23907,-12.88645 23.43269,-17.64992 z"
     id="path1122" />
  <path
     style="fill:#fec910;fill-opacity:1"
     d="m 1153.5351,403.07422 c -32.9888,-44.33139 -54.2866,-72.19574 -60.9085,-79.6875 l -4.4194,-5 -0.052,17.56284 -0.052,17.56283 7.1875,11.42039 c 9.047,14.37504 20.3113,28.62255 30.8678,39.04283 5.4522,5.3818 8.1947,7.36888 8.1947,5.9375 0,-1.18327 0.7031,-2.15131 1.5625,-2.15123 4.0134,4.4e-4 33.7575,21.66782 42.7338,31.12981 2.0193,2.12852 3.8395,3.87003 4.045,3.87003 0.2055,0 -12.9162,-17.85938 -29.1594,-39.6875 z"
     id="path1120" />
  <path
     style="fill:#fec910;fill-opacity:1"
     d="m 216.88081,393.30946 c 21.31955,-28.57374 45.5037,-60.33158 53.74254,-70.57296 l 14.97971,-18.62071 v -10.67703 c 0,-5.87238 -0.24773,-10.67704 -0.5505,-10.67704 -1.3678,0 -18.9361,6.61768 -19.86185,7.48161 -0.57054,0.53245 -2.91564,6.56651 -5.21133,13.40904 -13.18026,39.28504 -44.71492,92.00036 -75.83763,126.77495 -7.72418,8.63051 -10.76927,14.8344 -7.28124,14.8344 0.6916,0 18.70074,-23.37851 40.0203,-51.95226 z"
     id="path1118" />
  <path
     style="fill:#fec910;fill-opacity:1"
     d="m 1192.0721,430.94616 c -10.9024,-11.4774 -20.7525,-24.48026 -35.5574,-46.9385 -20.6142,-31.27051 -35.0038,-59.87151 -42.4517,-84.37725 l -2.8349,-9.32767 -7.5,-2.99539 c -4.125,-1.64747 -9.3281,-3.38889 -11.5625,-3.86983 l -4.0625,-0.87444 0.02,9.78682 0.02,9.78682 15.1736,18.75 c 8.3456,10.3125 33.2025,42.87899 55.2377,72.36998 37.5669,50.27797 40.1228,53.40016 41.0072,50.09316 0.8473,-3.16839 0.086,-4.429 -7.489,-12.4037 z"
     id="path1116" />
  <path
     style="fill:#fec910;fill-opacity:1"
     d="m 106.85158,440.26448 c 0.98163,-1.8342 1.43987,-8.55367 1.32376,-19.41132 -0.27438,-25.65788 4.23869,-48.36637 14.26045,-71.7545 6.20857,-14.48914 13.91357,-27.02521 26.49049,-43.10015 l 10.67045,-13.63822 2.92624,-13.86178 c 4.48843,-21.26192 5.9996,-38.97135 5.12944,-60.11179 -0.68414,-16.62086 -3.0444,-34.53671 -4.77835,-36.27066 -0.93129,-0.9313 -21.13231,41.41318 -29.23001,61.27066 -26.79318,65.7032 -39.335813,130.35973 -39.27056,202.43736 l 0.02043,22.56264 5.478174,-12.65848 c 3.012986,-6.96216 6.153756,-13.92086 6.979496,-15.46376 z"
     id="path1114" />
  <path
     style="fill:#fec910;fill-opacity:1"
     d="m 1280.7107,426.92192 c -3.9132,-85.79505 -19.5335,-146.58311 -57.9223,-225.4102 l -10.0443,-20.625 -1.6452,6.875 c -4.5739,19.11449 -4.9823,49.0766 -1.0223,75 4.013,26.27002 4.8956,28.7505 14.5317,40.83812 12.2008,15.30477 17.2314,22.9385 23.9985,36.41687 12.8406,25.57468 18.5297,49.65231 18.8131,79.62001 0.1855,19.61092 0.2628,20.1459 3.9778,27.5 2.0838,4.125 5.148,10.875 6.8095,15 l 3.0209,7.5 0.4019,-6.875 c 0.221,-3.78125 -0.1926,-19.90916 -0.9193,-35.8398 z"
     id="path1112" />
  <path
     style="fill:#fec910;fill-opacity:1"
     d="m 1297.3532,458.27877 c 3.1148,-6.22191 9.4795,-16.89919 14.144,-23.7273 l 8.4809,-12.41475 0.4098,-21.875 c 0.9086,-48.51479 -6.3087,-83.46465 -25.1678,-121.875 -16.4075,-33.41723 -30.5939,-54.09046 -52.5386,-76.5625 -7.5529,-7.73438 -14.1637,-14.0625 -14.6908,-14.0625 -0.5271,0 3.1641,8.57812 8.2027,19.0625 22.4926,46.80344 38.1461,94.56261 46.267,141.16211 5.2673,30.22519 7.0541,50.19891 7.7826,87.00144 0.3847,19.44307 0.8679,35.18286 1.0735,34.9773 0.2055,-0.20556 2.9221,-5.4644 6.0367,-11.6863 z"
     id="path1110" />
  <path
     style="fill:#fec910;fill-opacity:1"
     d="m 86.77961,394.01172 c 6.248534,-67.30305 22.14163,-123.40233 54.2914,-191.63719 l 6.9554,-14.76219 -4.92109,3.89759 c -6.87982,5.44891 -22.62898,22.56828 -31.21696,33.93288 -10.56518,13.98107 -20.551688,30.55592 -30.76951,51.06891 -19.278898,38.70372 -25.969659,69.00702 -26.081183,118.125 l -0.0596,26.25 8.753285,13.16205 c 4.814307,7.23914 11.283057,18.29172 14.375,24.56134 l 5.621712,11.39927 0.800448,-30.18634 c 0.440244,-16.60247 1.453239,-37.21757 2.251098,-45.81132 z"
     id="path1108" />
  <path
     style="fill:#fec910;fill-opacity:1"
     d="m 1201.3774,576.96083 c -6.3936,-32.94851 -7.428,-43.30676 -7.5551,-75.64986 l -0.1212,-30.82574 -4.3125,-5.42426 c -10.0007,-12.57876 -29.4682,-30.8614 -40.2746,-37.82331 l -3.3642,-2.16732 3.7126,14.15819 c 9.4821,36.16085 19.9663,69.73086 30.7726,98.53319 8.0876,21.55602 22.9714,56.56332 23.7273,55.80744 0.2939,-0.29382 -0.8693,-7.76757 -2.5849,-16.60833 z"
     id="path1106" />
  <path
     style="fill:#fec910;fill-opacity:1"
     d="m 188.04136,555.88672 c 4.70356,-11.6875 11.4554,-29.6875 15.00407,-40 8.83736,-25.68141 27.12705,-88.97225 26.02853,-90.07076 -0.23641,-0.23641 -4.08171,2.30502 -8.54511,5.64763 -9.46495,7.08823 -24.37654,21.38898 -32.90293,31.55507 l -5.98161,7.13194 -0.34504,33.49306 c -0.35076,34.04877 -0.90178,39.72397 -7.01435,72.24306 -1.4215,7.5625 -2.84473,15.15625 -3.16275,16.875 -0.89512,4.83799 7.46394,-13.3804 16.91919,-36.875 z"
     id="path1104" />
  <path
     style="fill:#fec910;fill-opacity:1"
     d="m 1232.1504,604.82133 c 6.624,-4.36721 13.774,-8.65716 15.889,-9.53323 2.3675,-0.9806 4.1928,-2.85332 4.7491,-4.87212 1.5052,-5.46342 0.961,-61.16731 -0.7283,-74.52926 -4.2153,-33.34333 -12.0142,-69.15934 -22.0447,-101.23888 l -4.6866,-14.98887 -3.0433,5.98822 c -4.512,8.87824 -11.198,29.79007 -14.0644,43.98953 -7.9871,39.56651 -6.4841,82.09659 4.7928,135.625 3.7417,17.76097 6.141,27.5 6.7748,27.5 0.1749,0 5.7377,-3.57318 12.3616,-7.94039 z"
     id="path1102" />
  <path
     style="fill:#fec910;fill-opacity:1"
     d="m 160.48986,594.37962 c 9.58074,-44.09925 11.89942,-65.158 11.02126,-100.09716 -0.65389,-26.016 -1.91412,-35.98592 -7.14441,-56.52074 -2.85369,-11.20391 -11.98748,-35.77726 -13.68915,-36.82895 -1.37375,-0.84904 -13.2128,39.53552 -18.30886,62.45395 -8.65238,38.9122 -12.51984,80.2929 -10.49808,112.32639 0.60145,9.5295 1.26542,17.46106 1.47549,17.62569 0.21007,0.16462 3.95156,2.17802 8.31442,4.47422 4.36287,2.2962 11.39412,6.59294 15.625,9.54833 4.23089,2.95537 8.03413,5.37947 8.45163,5.38688 0.41751,0.008 2.55622,-8.25846 4.7527,-18.36861 z"
     id="path1100" />
  <path
     style="fill:#fec910;fill-opacity:1"
     d="m 1194.4742,635.88672 12.1108,-12.5 -6.2223,-13.125 c -23.4803,-49.52774 -45.4586,-110.28966 -58.5519,-161.875 -1.5706,-6.1875 -3.2607,-11.71656 -3.7559,-12.28681 -0.4952,-0.57025 -1.8839,5.46942 -3.086,13.42147 -2.9331,19.40313 -2.0907,57.45021 1.7184,77.61534 3.8609,20.4397 10.536,43.588 16.7959,58.24564 3.0545,7.1524 7.3072,18.47941 9.4504,25.17114 3.8805,12.11645 10.1474,40.46634 10.194,46.11527 0.022,2.65189 0.5149,2.36894 4.6301,-2.65705 2.5331,-3.09375 10.0555,-11.25 16.7165,-18.125 z"
     id="path1098" />
  <path
     style="fill:#fec910;fill-opacity:1"
     d="m 204.9839,640.88672 c 2.89318,-16.59626 9.38006,-37.98645 16.86907,-55.625 18.99926,-44.74811 25.75884,-101.06895 17.30656,-144.19835 l -1.43518,-7.32334 -7.41745,26.69834 c -15.4405,55.57644 -36.7427,112.93405 -56.55205,152.27015 -2.42099,4.80744 -4.40179,9.32302 -4.40179,10.03464 0,0.71161 5.2794,6.63366 11.73199,13.16008 6.4526,6.52643 13.62447,14.34511 15.9375,17.37483 4.93519,6.46434 4.57715,7.02161 7.96135,-12.39135 z"
     id="path1096" />
  <path
     style="fill:#fec910;fill-opacity:1"
     d="m 1268.4906,652.84743 c 18.0411,-28.00354 26.098,-73.46452 20.146,-113.67528 -4.711,-31.82688 -17.7109,-73.22299 -30.5554,-97.29832 -5.3305,-9.99145 -17.2549,-29.11211 -18.1554,-29.11211 -0.1708,0 0.7837,3.51562 2.121,7.8125 3.9286,12.62236 10.6453,40.31056 14.0244,57.8125 6.2425,32.33254 8.6487,67.24714 7.2359,105 -0.2315,6.1875 -0.05,21.375 0.4042,33.75 0.4539,12.375 0.3339,27.14062 -0.2666,32.8125 -0.6006,5.67187 -0.7825,10.30757 -0.4042,10.30156 0.3782,-0.006 2.8307,-3.33752 5.4501,-7.40335 z"
     id="path1094" />
  <path
     style="fill:#fec910;fill-opacity:1"
     d="m 111.75331,643.96778 c -0.67611,-8.56958 -0.86017,-20.26444 -0.40901,-25.98855 0.45115,-5.72411 0.94508,-30.47411 1.09762,-55 0.29796,-47.90874 1.20914,-57.69561 8.80372,-94.55981 2.65559,-12.89031 10.71733,-44.32588 13.84367,-53.98138 1.476,-4.55856 -13.60186,19.19832 -19.09096,30.07998 -15.18244,30.09779 -26.954197,70.96824 -30.46767,105.78088 -3.013792,29.86164 2.376823,63.26275 14.453494,89.55613 4.023216,8.75938 11.668726,21.02352 12.554146,20.13809 0.24436,-0.24435 -0.1089,-7.45576 -0.78501,-16.02534 z"
     id="path1092" />
  <path
     style="fill:#fec910;fill-opacity:1"
     d="m 1284.3531,680.01523 c 2.4063,-1.50542 11.125,-5.64041 19.375,-9.18885 14.2145,-6.11386 15.2446,-6.80489 19.6725,-13.19569 7.3653,-10.63058 22.8095,-42.80108 28.4285,-59.21727 9.709,-28.36466 14.5926,-61.96115 13.4361,-92.43165 -0.9991,-26.32148 -5.0817,-42.7221 -16.3547,-65.70038 l -6.4295,-13.10532 -0.8554,4.98032 c -0.4705,2.73918 -1.4744,14.98818 -2.2307,27.21998 -5.239,84.72029 -23.0952,154.02674 -54.4133,211.19785 -3.6719,6.70312 -6.2999,12.1854 -5.8399,12.18282 0.46,-0.002 2.8051,-1.23638 5.2114,-2.74181 z"
     id="path1086" />
  <path
     style="fill:#fec910;fill-opacity:1"
     d="M 86.387268,662.44922 C 55.436815,601.17343 40.967134,541.38077 35.189649,450.88672 l -1.51629,-23.75 -3.439118,5.78426 c -14.441371,24.28895 -22.2160943,59.132 -20.3255804,91.09074 1.7595344,29.74456 6.2318244,53.11274 14.8322494,77.5 5.278335,14.96719 19.541838,44.3769 27.280857,56.25 4.172159,6.40088 5.204457,7.15762 14.968748,10.97319 5.768151,2.254 14.425049,6.26297 19.237549,8.90882 4.8125,2.64586 9.12554,4.87982 9.584534,4.96433 0.458992,0.0845 -3.782405,-8.98697 -9.42533,-20.15884 z"
     id="path1084" />
  <path
     style="fill:#fec910;fill-opacity:1"
     d="m 1266.829,682.76172 c 40.1601,-67.36351 58.6715,-137.82569 64.365,-245 l 0.7636,-14.375 -3.1925,3.75 c -10.6398,12.4976 -26.0434,40.34441 -33.6274,60.79184 l -4.4664,12.04185 3.6498,16.70815 c 4.9367,22.59965 6.7601,41.04481 5.8572,59.25196 -1.9028,38.37146 -14.4606,74.33829 -32.9197,94.28559 -6.5644,7.09362 -8.0238,9.54482 -9.7534,16.38124 -1.1186,4.42165 -2.3432,9.16437 -2.7214,10.53937 -1.3222,4.80813 5.3707,-3.17949 12.0452,-14.375 z"
     id="path1082" />
  <path
     style="fill:#fec910;fill-opacity:1"
     d="m 118.32123,688.06836 c -2.00266,-8.60065 -3.00154,-10.63181 -6.92065,-14.07284 -6.08044,-5.3387 -17.282636,-22.33709 -21.952447,-33.31099 -9.545177,-22.43083 -14.084334,-46.15236 -14.07351,-73.54781 0.0081,-20.42902 1.080527,-29.65531 6.0561,-52.10033 l 3.268415,-14.74394 -3.449839,-9.70287 c -7.59418,-21.35905 -23.494052,-50.4877 -34.294575,-62.82786 l -3.829148,-4.375 0.569294,5 c 0.313113,2.75 0.902639,12.03125 1.310058,20.625 3.68415,77.71017 18.61336,143.51442 45.030926,198.48515 13.016016,27.08424 28.241736,53.00699 30.063586,51.18514 0.30924,-0.30924 -0.49095,-5.08538 -1.77821,-10.61365 z"
     id="path1080" />
  <path
     style="fill:#fec910;fill-opacity:1"
     d="m 248.13199,718.31503 c -8.47157,-40.67801 -11.99358,-79.01376 -10.9033,-118.67831 l 0.68717,-25 -4.84427,10 c -9.76238,20.15242 -18.03912,49.33402 -21.27213,75 l -1.4171,11.25 6.1782,9.375 c 3.39801,5.15625 8.87808,14.15625 12.1779,20 7.96153,14.09925 22.0362,36.49506 22.58836,35.9429 0.24164,-0.24164 -1.19603,-8.29195 -3.19483,-17.88959 z"
     id="path1078" />
  <path
     style="fill:#fec910;fill-opacity:1"
     d="m 1141.8079,708.38672 c 3.655,-6.1875 10.2229,-17.0582 14.5953,-24.1571 9.1078,-14.78695 9.0754,-14.57266 5.4418,-36.03119 -3.1665,-18.70016 -7.687,-34.91439 -14.4483,-51.82265 -10.5246,-26.31961 -10.0233,-26.74705 -9.4857,8.08845 0.5009,32.45854 -0.8506,54.89323 -4.9428,82.04749 -2.1623,14.34877 -7.1873,40.78684 -9.3844,49.375 -0.7394,2.89007 8.5757,-11.16633 18.2241,-27.5 z"
     id="path1076" />
  <path
     style="fill:#fec910;fill-opacity:1"
     d="m 309.32661,681.06398 c -6.25336,-6.09001 -11.6038,-10.83867 -11.88989,-10.55258 -0.95769,0.95768 9.43884,38.90645 16.02689,58.50032 l 6.51445,19.375 0.35914,-28.125 0.35915,-28.125 z"
     id="path1074" />
  <path
     style="fill:#fec910;fill-opacity:1"
     d="m 1064.8861,720.19463 c 6.0772,-18.78146 13.8069,-48.50969 12.8595,-49.45712 -0.3349,-0.33484 -5.7352,4.42082 -12.0007,10.56812 l -11.3918,11.17691 0.059,28.57709 0.058,28.57709 2.467,-6.25 c 1.3568,-3.4375 4.9339,-13.87394 7.949,-23.19209 z"
     id="path1072" />
  <path
     style="fill:#fec910;fill-opacity:1"
     d="m 1165.6031,756.27268 c 25.4775,-29.2066 63.7867,-96.94126 78.6587,-139.077 l 3.8156,-10.81034 -5.2996,3.15949 c -20.6308,12.29943 -47.4522,37.27063 -64.2702,59.83675 -5.5316,7.42218 -14.4575,20.92218 -19.8353,30 -5.3779,9.07783 -16.1435,26.75593 -23.9236,39.28465 -7.7801,12.52874 -14.1456,23.04229 -14.1456,23.36347 0,0.32116 9.1406,0.28568 20.3125,-0.0789 l 20.3125,-0.6628 4.375,-5.01536 z"
     id="path1070" />
  <path
     style="fill:#fec910;fill-opacity:1"
     d="m 250.77422,754.94922 c -2.64104,-4.29688 -8.7823,-14.10065 -13.64723,-21.78617 -4.86496,-7.68552 -12.349,-20.06052 -16.63123,-27.5 -16.86346,-29.29676 -30.80144,-47.53237 -51.6476,-67.57268 -13.25533,-12.74291 -38.56376,-31.67665 -40.18056,-30.05985 -0.99757,0.99755 7.1342,22.27419 15.78846,41.31032 16.06652,35.34032 41.81045,77.82644 63.42397,104.67088 l 5.53533,6.875 15.15635,0.68412 c 8.33599,0.37628 17.82216,0.79815 21.08037,0.9375 l 5.92403,0.25338 z"
     id="path1068" />
  <path
     style="fill:#fec910;fill-opacity:1"
     d="m 1106.8407,763.4193 c 1.8918,-4.9758 12.1773,-52.40059 15.0116,-69.21644 4.7233,-28.02209 6.2274,-48.09525 6.1496,-82.06614 -0.041,-17.875 -0.4978,-33.58016 -1.0152,-34.90036 -0.7826,-1.997 -1.9115,-0.8417 -6.7179,6.875 -12.5721,20.18428 -26.1156,53.61731 -26.2907,64.90036 -0.048,3.09375 1.66,13.58944 3.7957,23.32374 5.1,23.24589 6.944,47.90685 5.2997,70.87314 -0.6821,9.52703 -1.578,18.66766 -1.9908,20.3125 -0.616,2.4541 -0.2722,2.99062 1.9158,2.99062 1.6866,0 3.0986,-1.13644 3.8422,-3.09242 z"
     id="path1066" />
  <path
     style="fill:#fec910;fill-opacity:1"
     d="m 273.87373,761.82422 c -0.41406,-2.57813 -1.09885,-15.375 -1.52173,-28.4375 -0.85082,-26.28014 0.68023,-42.48975 6.37342,-67.4772 1.7202,-7.54995 3.12764,-15.27592 3.12764,-17.16881 0,-9.75249 -16.4834,-49.13455 -27.83076,-66.49311 l -5.64743,-8.63912 -0.93486,14.88912 c -1.21984,19.42749 0.0248,60.75945 2.42446,80.51412 3.44149,28.33091 16.54826,92.08213 19.71615,95.8992 0.7307,0.88044 2.16496,1.6008 3.18725,1.6008 1.44834,0 1.69249,-1.0349 1.10586,-4.6875 z"
     id="path1064" />
  <path
     style="fill:#fec910;fill-opacity:1"
     d="m 1074.3427,774.46197 c 13.7065,-4.75768 15.7207,-5.81693 16.4833,-8.6682 1.9939,-7.45541 3.7981,-38.1499 3.0059,-51.13666 -0.8235,-13.49767 -4.1005,-37.72594 -5.3887,-39.84094 -0.3587,-0.58881 -2.4734,6.16119 -4.6995,15 -5.5478,22.02808 -11.8911,41.96426 -21.372,67.1689 -8.6903,23.10309 -9.2326,25.32056 -5.8311,23.8455 1.2031,-0.52174 9.2141,-3.38761 17.8021,-6.3686 z"
     id="path1062" />
  <path
     style="fill:#fec910;fill-opacity:1"
     d="m 311.41808,752.54414 c -8.74162,-23.80077 -18.62546,-56.17478 -22.16571,-72.60262 -0.85282,-3.95736 -1.75344,-6.99234 -2.00137,-6.7444 -0.24794,0.24794 -1.33202,5.17327 -2.40907,10.9452 -2.74628,14.71752 -3.71257,53.26581 -1.77171,70.67925 l 1.56291,14.02232 13.29747,4.3814 c 7.3136,2.40978 15.26621,5.21812 17.67246,6.24074 3.6122,1.53516 4.44227,1.56523 4.76087,0.17244 0.21224,-0.9278 -3.8134,-13.12025 -8.94585,-27.09433 z"
     id="path1060" />
  <path
     style="fill:#fec910;fill-opacity:1"
     d="m 1228.7281,779.75906 c 32.6771,-25.31008 58.5915,-49.07405 79.8755,-73.24734 14.7854,-16.7924 30.0544,-36.11185 29.2089,-36.95727 -1.1152,-1.11516 -24.0988,7.08294 -36.5844,13.04938 -15.0201,7.1776 -29.6229,16.11557 -42.7754,26.18163 -9.7178,7.4374 -9.7275,7.45068 -13.9301,19.14691 -8.0773,22.48024 -21.4262,48.26961 -31.9144,61.65704 -4.9003,6.25485 -3.7104,5.52924 16.1199,-9.83035 z"
     id="path1058" />
  <path
     style="fill:#fec910;fill-opacity:1"
     d="M 157.41981,781.82422 C 147.9845,767.72596 139.4265,750.58463 131.76963,730.44796 126.74528,717.23448 125.91198,715.88247 119.64638,710.77856 109.06619,702.15999 92.543516,691.69407 78.158656,684.49907 65.6413,678.23815 38.503663,668.19446 37.315275,669.38285 c -0.864231,0.86422 22.899701,30.04357 36.663104,45.01803 12.87744,14.01054 30.726901,30.89364 49.099891,46.44164 9.48905,8.03004 41.43514,33.13248 42.19894,33.15886 0.16452,0.006 -3.3713,-5.47403 -7.8574,-12.17716 z"
     id="path1056" />
  <path
     style="fill:#fec910;fill-opacity:1"
     d="m 1252.6224,829.94922 c 16.0115,-15.41979 28.6835,-30.94066 44.2462,-54.19344 17.5716,-26.25432 29.7089,-52.60516 38.2205,-82.97947 0.5246,-1.87244 -3.2826,1.85891 -9.5659,9.375 -15.4987,18.53996 -39.472,42.66527 -59.9201,60.30026 -16.1409,13.92029 -57.2259,45.47798 -85.9719,66.03559 l -10.3469,7.39956 18.9534,0.87294 c 16.8084,0.77415 47.1138,4.22171 48.5112,5.51866 1.3552,1.25775 3.4745,-0.38832 15.8734,-12.3291 z"
     id="path1006" />
  <path
     style="fill:#fec910;fill-opacity:1"
     d="m 155.60306,839.53761 c 7.90625,-1.10477 22.50512,-2.37816 32.44194,-2.82978 L 206.11192,835.88672 190.545,824.70028 C 164.19861,805.76771 132.01611,781.18522 114.97806,766.97874 95.796576,750.98505 65.299909,720.74987 51.22991,703.77717 45.730927,697.14372 41.047033,691.90108 40.82126,692.12686 c -0.768715,0.76871 3.917965,16.22496 8.783478,28.96711 13.638003,35.71617 40.607442,76.30721 70.746672,106.47907 12.65385,12.66756 15.90904,15.30512 18.14814,14.70478 1.50068,-0.40236 9.19726,-1.63545 17.10351,-2.74021 z"
     id="path1004" />
  <path
     style="fill:#fec910;fill-opacity:1"
     d="m 1134.0351,840.79596 c 6.0187,-1.12663 12.3794,-2.79005 14.1351,-3.6965 7.4523,-3.8477 26.4975,-19.93101 38.7317,-32.70808 25.2479,-26.36844 38.8881,-50.55055 53.7933,-95.36782 9.2228,-27.73136 13.6719,-53.08005 13.6047,-77.51184 l -0.033,-11.875 -5.6736,13.75 c -17.9468,43.49417 -44.3931,89.53036 -70.9354,123.48052 -5.3605,6.85648 -12.8876,18.66525 -17.1308,26.875 -8.9435,17.30412 -22.8428,38.49118 -33.7258,51.40914 -4.2929,5.09556 -6.8837,8.91104 -5.7574,8.47883 1.1264,-0.4322 6.9722,-1.70763 12.9909,-2.83425 z"
     id="path1002" />
  <path
     style="fill:#fec910;fill-opacity:1"
     d="m 254.12305,841.82422 c -16.23568,-19.01789 -28.67635,-37.43679 -39.1297,-57.93305 -3.99847,-7.83995 -10.88842,-18.75445 -15.31099,-24.25445 -10.10459,-12.56626 -31.40315,-44.48075 -41.638,-62.39177 -9.3231,-16.31548 -25.29948,-49.02696 -32.40954,-66.35823 l -5.12806,-12.5 0.67968,17.5 c 0.37383,9.625 1.53874,22.84375 2.58869,29.375 6.31704,39.29536 25.42899,88.39502 45.2501,116.25 10.44228,14.67471 34.96965,39.40517 48.82617,49.23044 9.38876,6.65731 11.58365,7.62111 23.125,10.15445 16.1707,3.54949 15.3346,3.4905 13.14665,0.92761 z"
     id="path1000" />
  <path
     style="fill:#fec910;fill-opacity:1"
     d="m 695.97523,866.07292 c 5.44479,-2.27499 11.72525,-9.67401 13.35782,-15.73686 3.97282,-14.75399 -10.8799,-31.21071 -25.39709,-28.13979 -6.30035,1.33276 -12.49963,5.33204 -15.85438,10.22797 -2.53963,3.70635 -3.10352,6.03989 -3.10352,12.84319 0,7.1824 0.47696,8.93923 3.50459,12.90865 6.54302,8.57834 17.99136,11.8667 27.49258,7.89684 z"
     id="path994" />
  <path
     style="fill:#fec910;fill-opacity:1"
     d="m 1061.0997,865.30342 c 14.5081,-5.41733 28.9097,-10.944 32.0034,-12.2815 6.0313,-2.60749 22.347,-18.65929 32.6635,-32.1352 6.2854,-8.21039 17.3365,-24.95047 17.3365,-26.26126 0,-0.45293 -3.4658,2.31287 -7.7018,6.14622 -23.6166,21.37183 -72.1101,55.40198 -105.1107,73.76118 -4.6406,2.58171 -8.4375,4.91866 -8.4375,5.1932 0,0.27455 2.8953,-0.64205 6.4341,-2.03689 3.5387,-1.39484 18.3043,-6.96843 32.8125,-12.38575 z"
     id="path992" />
  <path
     style="fill:#fec910;fill-opacity:1"
     d="m 352.41556,879.19746 c -0.65313,-0.58535 -7.65625,-4.88692 -15.5625,-9.55904 -33.47884,-19.784 -63.35388,-40.72094 -89.86984,-62.98233 -14.04751,-11.79352 -15.23474,-12.54582 -12.71012,-8.05388 4.96887,8.84091 19.78098,28.1276 30.61313,39.86098 12.13564,13.14534 9.65367,11.84769 57.38263,30.00154 34.38517,13.0785 31.69575,12.12101 30.1467,10.73273 z"
     id="path990" />
  <path
     style="fill:#fec910;fill-opacity:1"
     d="m 915.33209,876.19922 c 15.31112,-21.33924 39.02097,-57.86306 39.02097,-60.10983 0,-0.45522 -9.1709,-0.82767 -20.37979,-0.82767 h -20.3798 l -3.79702,4.0625 c -5.35463,5.729 -13.63749,16.91235 -23.83944,32.1875 -8.59811,12.87376 -19.10395,29.62964 -19.10395,30.46911 0,0.23379 6.04687,0.83889 13.4375,1.34466 7.39062,0.50579 15.96875,1.35919 19.0625,1.89645 3.09375,0.53728 6.28981,1.04727 7.10235,1.13332 0.81254,0.086 4.80705,-4.48417 8.87668,-10.15604 z"
     id="path986" />
  <path
     style="fill:#fec910;fill-opacity:1"
     d="m 481.22806,884.65075 c 7.5625,-1.01213 16.70312,-1.8512 20.3125,-1.86463 3.60937,-0.0134 6.5625,-0.50901 6.5625,-1.10132 0,-3.05697 -27.18041,-43.75327 -39.14508,-58.61058 l -6.29143,-7.8125 H 441.6348 c -11.56745,0 -21.03174,0.27134 -21.03174,0.60299 0,0.9285 9.51395,16.25926 17.85442,28.77056 6.53438,9.80202 28.71864,41.89469 28.9402,41.86606 0.0442,-0.006 6.26788,-0.83847 13.83038,-1.85059 z"
     id="path984" />
  <path
     style="fill:#fec910;fill-opacity:1"
     d="m 613.10306,892.04976 c 0,-1.24239 -25.08074,-12.54503 -39.78689,-17.92997 -14.04157,-5.1416 -70.40844,-22.83817 -70.95253,-22.2758 -0.15577,0.161 3.81682,7.04273 8.82796,15.29273 l 9.11117,15 17.06032,0.85889 c 21.19067,1.06683 49.03414,4.20646 63.86497,7.20142 6.1875,1.24951 11.39062,2.33774 11.5625,2.41826 0.17187,0.0805 0.3125,-0.17396 0.3125,-0.56553 z"
     id="path980" />
  <path
     style="fill:#fec910;fill-opacity:1"
     d="m 1021.8531,868.07177 c 25.596,-14.61703 66.1377,-41.54658 84.375,-56.04549 15.2555,-12.1283 38.2955,-32.12022 43.125,-37.41969 l 3.125,-3.42911 -15,0.72908 c -24.0882,1.17082 -43.3575,5.39091 -70.5756,15.45651 l -12.5494,4.64091 v 11.62886 11.62888 h -21.5848 c -22.8038,0 -22.6506,-0.0331 -31.8946,6.90124 -0.1949,0.14621 -1.7264,5.26261 -3.40332,11.3698 -4.0001,14.56797 -11.3436,33.23982 -19.33992,49.17436 l -6.45089,12.85489 14.77425,-7.85598 c 8.12583,-4.32079 24.05548,-13.1562 35.39928,-19.63426 z"
     id="path978" />
  <path
     style="fill:#fec910;fill-opacity:1"
     d="m 395.12382,877.87029 c -7.37502,-15.15195 -19.52076,-48.18733 -19.52076,-53.09483 0,-1.13784 -2.64137,-3.74392 -5.86973,-5.79126 l -5.86972,-3.72248 h -21.63028 -21.63027 v -11.70984 -11.70984 l -12.1875,-4.69071 c -24.11324,-9.28067 -55.53056,-15.67987 -76.5625,-15.59452 l -9.375,0.038 8.125,7.49251 c 42.27761,38.98647 84.82627,68.5125 149.98004,104.07645 12.02027,6.56122 22.01678,11.76775 22.21447,11.57006 0.1977,-0.19769 -3.25548,-7.7863 -7.67375,-16.86357 z"
     id="path976" />
  <path
     style="fill:#fec910;fill-opacity:1"
     d="m 963.95251,888.69922 c 6.38548,-11.72884 13.06621,-26.0541 17.87024,-38.31847 2.53693,-6.47665 10.03031,-31.94123 10.03031,-34.08582 0,-0.56826 -5.55619,-1.03321 -12.34708,-1.03321 H 967.1589 l -10.92814,17.56652 c -6.01049,9.66159 -16.79915,26.03549 -23.97481,36.38645 -7.17567,10.35095 -12.87369,18.96188 -12.66228,19.13538 0.21142,0.17349 6.29064,2.04458 13.50939,4.15796 7.21875,2.11339 15.09375,4.70051 17.5,5.74918 2.40625,1.04866 4.9779,1.92867 5.71478,1.95559 0.73687,0.0269 4.17247,-5.15421 7.63467,-11.51358 z"
     id="path974" />
  <path
     style="fill:#fec910;fill-opacity:1"
     d="m 433.59606,895.28651 c 6.2601,-2.01583 13.99968,-4.39294 17.19905,-5.28247 l 5.81704,-1.61732 -12.25495,-17.5 c -6.74023,-9.625 -17.5556,-25.9375 -24.03417,-36.25 l -11.77919,-18.75 -12.09539,-0.35776 c -12.04175,-0.35618 -12.09539,-0.34443 -12.09539,2.64994 0,9.09142 13.61804,45.36558 25.17774,67.06556 7.56322,14.19775 8.42262,15.34216 10.82802,14.41911 1.02038,-0.39155 6.97713,-2.36122 13.23724,-4.37706 z"
     id="path972" />
  <path
     style="fill:#fec910;fill-opacity:1"
     d="m 720.76351,918.02097 c 13.94589,-18.09326 34.24423,-35.84706 48.97191,-42.83294 3.99154,-1.89332 6.80404,-3.7213 6.25,-4.06214 -0.55405,-0.34083 -4.53123,-1.31202 -8.8382,-2.15818 -11.97203,-2.35207 -30.2661,-1.00245 -40.74527,3.0059 -9.37381,3.58555 -23.18271,12.25038 -28.63244,17.96635 l -3.45856,3.62751 10.24966,15.22212 c 5.63731,8.37218 10.56866,15.19817 10.95855,15.16888 0.3899,-0.0292 2.74985,-2.70115 5.24435,-5.9375 z"
     id="path970" />
  <path
     style="fill:#fec910;fill-opacity:1"
     d="m 770.60306,936.50028 c 68.63845,-2.7897 148.9466,-9.82147 190.625,-16.69112 l 10,-1.64825 -9.40734,-4.41536 c -35.95911,-16.87752 -76.8464,-23.72898 -124.77454,-20.90839 -36.89323,2.17117 -65.85125,6.56785 -86.15992,13.08157 -9.2263,2.95922 -10.02154,3.52487 -17.7832,12.64933 -10.88084,12.79129 -11.53631,13.82236 -10.62084,16.70679 0.95189,2.99913 3.12114,3.05437 48.12084,1.22543 z"
     id="path968" />
  <path
     style="fill:#fec910;fill-opacity:1"
     d="m 650.28036,929.37428 c -7.07066,-9.84572 -17.34979,-20.40108 -21.59423,-22.17452 -27.26907,-11.39374 -108.31899,-18.35673 -148.08307,-12.72178 -26.27221,3.72303 -52.83289,11.6619 -71.1012,21.25184 l -5.47619,2.87473 19.85119,2.68433 c 65.75287,8.89128 130.62589,14.24257 197.3512,16.27922 34.50202,1.05311 35.49235,0.7738 29.0523,-8.19382 z"
     id="path966" />
  <path
     style="fill:#fec910;fill-opacity:1"
     d="m 982.91528,942.61699 c 60.84792,-14.50796 124.79532,-33.86396 164.57652,-49.81502 19.9325,-7.99234 63.3364,-29.28723 74.3613,-36.48327 l 8.125,-5.30324 -10,-1.79619 c -6.6067,-1.1867 -19.7557,-1.83875 -38.75,-1.92161 -38.6224,-0.16848 -52.7383,2.41476 -87.5011,16.0129 -8.2494,3.2269 -29.281,11.22286 -46.7368,17.7688 -32.7249,12.27181 -67.46443,26.28384 -69.31223,27.9568 -0.57754,0.5229 2.09434,2.83149 5.9375,5.13019 3.84318,2.2987 6.9617,4.46991 6.93005,4.82491 -0.10837,1.21569 -18.06172,14.6861 -29.94246,22.46586 -6.53125,4.2768 -12.10938,8.00743 -12.39584,8.2903 -1.27017,1.25425 4.59859,0.0486 34.70806,-7.13042 z"
     id="path964" />
  <path
     style="fill:#fec910;fill-opacity:1"
     d="m 422.39914,946.28364 c -10.4125,-6.27804 -23.96497,-15.80886 -32.16377,-22.61925 l -5.99267,-4.97787 7.24267,-4.34415 c 3.98348,-2.38928 7.39579,-4.48483 7.5829,-4.65678 0.73604,-0.67637 -35.89492,-15.50888 -69.71521,-28.22891 -19.59375,-7.36932 -42.32496,-16.05205 -50.5138,-19.29493 -30.76778,-12.18444 -56.19291,-16.37036 -91.9862,-15.14434 -12.71875,0.43565 -27.34375,1.4937 -32.5,2.35123 l -9.375,1.55914 10.625,6.62258 c 14.33209,8.93321 48.90139,25.74607 72.11602,35.07381 39.22725,15.76166 92.81275,32.33621 149.52989,46.25114 31.47317,7.7216 50.64835,12.27522 52.65017,12.5031 0.6441,0.0734 -2.73091,-2.21933 -7.5,-5.09477 z"
     id="path962" />
  <path
     style="fill:#fec910;fill-opacity:1"
     d="m 1004.9781,977.70197 c 55.7037,-3.36991 96.9936,-13.66223 130.9787,-32.64893 29.5633,-16.51637 51.6861,-33.11405 71.5588,-53.68702 11.6466,-12.05707 25.4015,-28.6043 23.7772,-28.6043 -0.3885,0 -7.312,3.755 -15.3855,8.34444 -59.1168,33.60517 -145.8794,62.56136 -269.03844,89.78897 -17.52258,3.87384 -32.04339,7.2275 -32.26849,7.4526 -0.71595,0.71595 11.28649,4.30264 21.20789,6.33755 8.1692,1.67554 27.56992,3.51714 43.5448,4.13347 2.40625,0.0929 13.9375,-0.40972 25.62504,-1.11678 z"
     id="path960" />
  <path
     style="fill:#fec910;fill-opacity:1"
     d="m 820.07346,977.67177 c 40.7495,-3.99892 87.35917,-17.25531 116.1546,-33.03584 10.86866,-5.95627 24.21901,-14.29086 22.9733,-14.34217 -0.42717,-0.0176 -11.67717,1.34571 -25,3.02957 -49.82139,6.29693 -106.5573,10.68162 -170.3636,13.16613 -17.81466,0.69367 -32.51946,1.40434 -32.67732,1.57926 -0.15787,0.17493 3.54376,5.69993 8.22585,12.27778 l 8.51286,11.95975 9.78946,2.18918 c 20.09271,4.49328 39.10238,5.46115 62.38485,3.17634 z"
     id="path958" />
  <path
     style="fill:#fec910;fill-opacity:1"
     d="m 598.6948,977.70227 c 6.45876,-0.72019 15.56676,-2.26706 20.23998,-3.4375 l 8.49677,-2.12805 8.58096,-11.875 8.58095,-11.875 -35.4327,-1.46398 c -62.43614,-2.57966 -111.29426,-6.45292 -162.90398,-12.91431 -15.7967,-1.97771 -28.90796,-3.40914 -29.13613,-3.18096 -0.88297,0.88295 18.53941,12.11689 32.23241,18.64329 44.44214,21.18216 106.81642,32.97337 149.34174,28.23151 z"
     id="path956" />
  <path
     style="fill:#fec910;fill-opacity:1"
     d="m 432.47806,975.78456 c 15.42501,-2.20789 29.91351,-6.69734 26.2245,-8.126 -1.36097,-0.52708 -13.44325,-3.28826 -26.8495,-6.13597 -78.07162,-16.58367 -151.9677,-37.76196 -204.60915,-58.64008 -23.6927,-9.39677 -58.16401,-25.83283 -74.45335,-35.49967 -5.32813,-3.16194 -9.6875,-5.51405 -9.6875,-5.22688 0,0.28716 4.44038,6.04241 9.86749,12.78945 18.24555,22.68302 39.4785,41.06931 68.58496,59.38993 26.61432,16.75198 44.29156,24.63374 70.71866,31.53139 45.04764,11.75774 100.12849,15.65408 140.20389,9.91783 z"
     id="path954" />
  <path
     style="fill:#fec910;fill-opacity:1"
     d="m 1004.9781,1005.2751 c 8.9375,-0.8246 18.2187,-1.9112 20.625,-2.4149 l 4.375,-0.9157 -13.125,-6.73467 -13.125,-6.73467 -28.75004,-0.83968 c -22.139,-0.6466 -31.76806,-1.46546 -41.875,-3.56109 -13.81979,-2.86546 -25.98035,-7.56163 -29.41865,-11.3609 -1.88991,-2.08833 -2.50808,-2.12512 -7.87859,-0.46887 -23.69072,7.3062 -56.90912,13.67569 -81.32784,15.59426 -16.18698,1.27182 -31.7316,0.6723 -52.62492,-2.02961 l -4.375,-0.56578 5,1.95362 c 7.87014,3.07502 33.35652,9.0859 52.5,12.38191 14.75492,2.54048 37.60115,5.21948 63.125,7.40238 12.18454,1.042 111.57319,-0.2946 126.87504,-1.7063 z"
     id="path952" />
  <path
     style="fill:#fec910;fill-opacity:1"
     d="m 528.65718,1004.1043 c 26.95889,-3.2604 49.84983,-7.38933 70.02358,-12.63048 14.84417,-3.85651 23.2599,-7.1267 14.60705,-5.67601 -12.03985,2.01852 -34.70784,3.34483 -45.18475,2.64376 -26.54448,-1.77625 -61.65629,-7.99706 -83.88589,-14.8622 l -9.5109,-2.93724 -4.81142,3.58749 c -11.3322,8.4495 -39.38964,13.5321 -74.70122,13.5321 h -21.53137 l -14.3421,7.09952 c -13.88577,6.87366 -14.21189,7.12736 -10.24946,7.97326 2.25095,0.4806 13.50095,1.5413 25,2.3571 11.49905,0.8158 22.31361,1.6746 24.03236,1.9084 1.71875,0.2338 26.75,0.2657 55.625,0.071 44.62321,-0.301 55.86514,-0.7611 74.92912,-3.0667 z"
     id="path950" />
  <path
     style="fill:#fec910;fill-opacity:1"
     d="m 913.10306,1050.9163 c 19.68799,-3.0587 40.25175,-7.8185 55.625,-12.8753 14.28805,-4.6998 52.29954,-22.8462 49.68314,-23.7183 -0.8215,-0.2738 -8.3987,0.1424 -16.8383,0.9249 -24.44082,2.2662 -95.86634,3.0612 -122.21984,1.3604 -36.78628,-2.3742 -71.73789,-7.3657 -97.95726,-13.9896 -5.40774,-1.3661 -10.07782,-2.2383 -10.37793,-1.9382 -1.15663,1.1566 28.25818,30.3889 38.7404,38.4999 12.78805,9.8953 15.5771,10.8268 42.09479,14.0587 9.21423,1.123 48.7126,-0.3747 61.25,-2.3225 z"
     id="path946" />
  <path
     style="fill:#fec910;fill-opacity:1"
     d="m 539.97806,1050.9603 c 13.65566,-2.488 19.73354,-5.9092 35.41978,-19.9376 11.42301,-10.2158 29.54293,-29.3399 28.64757,-30.2353 -0.26561,-0.2656 -2.41442,0.077 -4.77514,0.7603 -19.12928,5.5406 -65.83001,12.4973 -100.15145,14.9187 -33.11298,2.3362 -90.18691,1.5444 -133.51576,-1.8524 -8.82187,-0.6916 -9.2275,-0.6139 -6.875,1.3171 4.80506,3.944 35.11301,17.8814 48.43849,22.2749 16.51031,5.4435 36.92766,10.0403 55.93651,12.5937 7.90625,1.062 15.78125,2.1784 17.5,2.481 7.13628,1.2561 48.64909,-0.3662 59.375,-2.3204 z"
     id="path944" />
  <path
     style="fill:#fec910;fill-opacity:1"
     d="m 804.66556,1056.3269 c 4.64062,-0.7101 8.4375,-1.5038 8.4375,-1.7637 0,-0.2599 -3.23438,-2.8536 -7.1875,-5.7636 -9.52629,-7.0126 -30.73904,-27.6708 -42.7814,-41.6629 -14.89611,-17.30788 -31.90635,-40.60301 -55.82945,-76.45713 -16.97428,-25.43976 -23.84208,-34.63074 -30.83269,-41.26246 -15.24102,-14.4586 -32.44869,-21.65539 -51.77841,-21.65539 -10.71322,0 -24.09055,2.17817 -24.09055,3.92256 0,0.59259 0.62955,1.07744 1.39899,1.07744 2.49257,0 16.13995,8.90374 24.43902,15.94434 16.70353,14.17061 35.0359,37.42437 68.72989,87.18066 38.30976,56.57238 49.50187,69.89628 64.6791,76.99858 12.45485,5.8283 23.61661,6.6855 44.8155,3.4416 z"
     id="path942" />
  <path
     style="fill:#fec910;fill-opacity:1"
     d="m 599.12466,1057.7468 c 11.887,-1.5435 22.96471,-6.8809 31.68287,-15.2653 7.5912,-7.3006 23.37722,-28.0825 40.02693,-52.6946 l 10.89129,-16.09982 -5.14645,-7.65018 c -2.83057,-4.2076 -7.63592,-11.17053 -10.67857,-15.47317 l -5.53208,-7.82298 -13.11149,18.67767 c -26.83798,38.2314 -57.19853,72.54728 -76.36456,86.31308 -4.28425,3.0771 -7.78954,5.9791 -7.78954,6.4489 0,0.7757 11.23385,2.9725 20.625,4.0332 2.0625,0.2329 4.3125,0.4904 5,0.5722 0.6875,0.082 5.36597,-0.3857 10.3966,-1.039 z"
     id="path940" />
  <path
     style="fill:#fec910;fill-opacity:1"
     d="m 698.96047,1057.6181 c 12.29821,-7.6007 14.63124,-23.5182 5.04701,-34.434 -17.50446,-19.9365 -48.7971,1.152 -37.21418,25.0791 5.72743,11.8314 20.982,16.2677 32.16717,9.3549 z"
     id="path938" />
  <path
     style="fill:#fec910;fill-opacity:1"
     d="m 762.09267,892.04976 c 0,-1.24239 25.08074,-12.54503 39.78689,-17.92997 14.04157,-5.1416 70.40844,-22.83817 70.95253,-22.2758 0.15577,0.161 -3.81682,7.04273 -8.82796,15.29273 l -9.11117,15 -17.06032,0.85889 c -21.19067,1.06683 -49.03414,4.20646 -63.86497,7.20142 -6.1875,1.24951 -11.39062,2.33774 -11.5625,2.41826 -0.17187,0.0805 -0.3125,-0.17396 -0.3125,-0.56553 z"
     id="path1214" />
</svg>
